{"glyphs":{"0":{"ha":640,"x_min":0,"x_max":0,"o":"m 611 832 b 586 949 604 861 597 906 b 561 1010 581 968 574 990 b 274 1050 499 1128 367 1147 b 197 936 242 1018 215 976 b 151 790 178 890 167 839 b 126 749 144 774 139 756 b 54 632 79 722 63 679 b 51 272 38 511 31 390 b 129 86 67 204 86 142 b 479 90 228 -42 388 -40 b 546 229 504 132 529 181 b 611 832 611 419 624 617 z m 392 776 b 338 325 515 940 422 110 b 392 776 283 440 310 626 z "},"1":{"ha":563,"x_min":0,"x_max":0,"o":"m 250 439 b 254 401 251 422 254 413 b 257 163 254 325 254 244 b 269 64 257 132 261 94 b 374 -19 285 11 328 -19 b 471 51 418 -19 456 8 b 482 139 478 82 482 110 b 564 861 500 382 518 622 b 574 965 572 894 575 929 b 443 1124 572 1047 521 1114 b 282 1001 369 1135 299 1085 b 272 864 275 958 272 910 b 211 706 269 806 247 751 b 119 663 189 676 165 658 b 43 535 51 667 13 599 b 186 439 71 472 119 442 b 250 439 204 439 226 439 z "},"2":{"ha":853,"x_min":0,"x_max":0,"o":"m 346 833 b 386 818 364 860 422 871 b 256 619 343 753 300 685 b 106 388 206 542 153 467 b 24 153 63 317 35 236 b 144 -6 17 63 60 4 b 206 -6 167 -7 186 -7 b 371 11 260 0 314 8 b 624 21 453 19 536 38 b 750 38 665 11 708 11 b 826 165 799 64 828 103 b 743 283 824 225 792 260 b 614 292 701 303 657 300 b 507 274 578 289 544 276 b 419 272 481 271 451 265 b 458 332 433 297 447 314 b 674 699 535 449 615 568 b 721 840 693 744 708 792 b 494 1128 754 1006 654 1131 b 299 1053 422 1124 358 1094 b 94 735 189 978 117 876 b 154 626 86 685 113 639 b 250 681 190 613 218 635 b 346 833 281 731 308 789 z "},"3":{"ha":688,"x_min":0,"x_max":0,"o":"m 500 560 b 489 1090 596 685 765 1042 b 343 1076 439 1099 390 1096 b 94 772 213 1018 126 917 b 94 701 90 749 92 722 b 175 625 104 660 140 628 b 254 686 215 622 242 642 b 256 703 256 690 254 694 b 454 771 324 943 508 939 b 313 554 438 721 360 581 b 282 465 281 538 275 504 b 357 400 294 426 322 408 b 375 397 364 399 368 399 b 410 322 422 386 436 360 b 319 243 386 290 353 264 b 181 276 263 213 225 222 b 71 315 147 318 107 329 b 28 210 32 296 18 261 b 210 4 51 108 114 42 b 654 235 399 -68 604 38 b 522 544 685 360 639 468 b 500 560 517 549 513 553 z "},"4":{"ha":782,"x_min":0,"x_max":0,"o":"m 481 318 b 569 4 494 215 486 86 b 665 -8 594 -19 638 -22 b 700 78 694 7 713 42 b 758 625 665 192 738 490 b 756 724 763 657 761 692 b 682 797 750 763 721 789 b 581 767 644 807 607 797 b 542 704 565 749 551 726 b 504 554 526 656 515 604 b 492 478 497 526 496 501 b 400 468 461 475 433 472 b 419 522 407 486 414 504 b 513 875 467 635 501 753 b 415 1092 517 946 521 1089 b 325 1022 376 1094 343 1071 b 314 990 321 1014 317 1001 b 113 535 268 829 197 681 b 57 429 93 500 71 467 b 32 313 42 392 32 351 b 167 206 29 239 92 190 b 226 229 188 208 207 218 b 481 318 307 265 393 296 z "},"5":{"ha":779,"x_min":0,"x_max":0,"o":"m 207 811 b 264 792 231 804 246 797 b 718 879 424 735 596 714 b 724 1038 756 931 757 992 b 571 1083 693 1085 635 1101 b 492 1050 544 1074 518 1063 b 175 1063 374 1000 286 989 b 40 982 113 1103 35 1061 b 39 915 42 961 39 939 b 42 565 39 799 39 682 b 142 503 43 513 88 486 b 165 513 149 506 157 510 b 306 539 211 522 258 538 b 257 278 529 544 436 174 b 233 286 250 282 242 285 b 79 244 175 300 119 294 b 67 83 39 194 40 140 b 157 -3 86 44 118 17 b 419 -11 246 -36 338 -32 b 439 717 828 94 846 589 b 231 717 374 738 307 742 b 199 711 221 714 214 713 b 207 811 201 746 204 774 z "},"6":{"ha":782,"x_min":0,"x_max":0,"o":"m 358 692 b 476 844 389 757 425 806 b 542 882 499 858 524 865 b 568 1017 588 913 599 968 b 488 1075 550 1050 524 1069 b 351 1054 440 1086 394 1081 b 167 881 274 1014 214 956 b 33 418 83 740 40 583 b 67 206 28 343 42 272 b 493 51 143 11 328 -56 b 735 360 610 124 682 229 b 749 496 753 403 757 450 b 500 708 729 621 626 708 b 358 692 454 707 413 699 z m 300 297 b 296 307 299 300 297 303 b 369 433 275 404 289 417 b 493 454 410 446 450 451 b 538 386 550 458 561 439 b 392 243 507 319 458 272 b 300 297 340 224 317 239 z "},"7":{"ha":806,"x_min":0,"x_max":0,"o":"m 596 550 b 608 583 603 568 604 575 b 738 815 650 661 694 739 b 757 901 756 844 769 869 b 718 997 746 935 733 965 b 654 1039 707 1022 682 1039 b 550 1035 618 1038 583 1036 b 169 1006 422 1025 296 1015 b 108 1006 150 1006 129 1010 b 15 938 63 1001 31 979 b 50 822 0 896 13 849 b 128 783 74 804 100 790 b 301 776 183 764 243 765 b 454 803 350 785 397 792 b 429 767 443 786 436 776 b 310 593 390 710 347 651 b 253 560 294 569 281 560 b 114 556 207 561 158 561 b 40 476 64 549 40 518 b 114 397 40 436 67 407 b 204 385 142 393 174 390 b 164 239 190 335 175 286 b 156 85 151 189 142 135 b 260 -10 171 32 207 -1 b 383 46 313 -21 354 3 b 415 117 397 68 406 92 b 490 324 440 185 464 257 b 608 410 522 404 524 403 b 710 429 642 413 675 421 b 742 442 721 432 732 436 b 776 519 774 458 786 489 b 701 560 768 549 738 564 b 596 550 669 557 636 554 z "},"8":{"ha":754,"x_min":0,"x_max":0,"o":"m 158 583 b 118 529 144 564 132 546 b 40 371 82 482 56 428 b 365 -18 -12 167 149 -24 b 651 139 489 -11 581 46 b 607 504 739 257 721 396 b 553 554 590 522 574 536 b 644 671 586 594 614 632 b 721 840 683 721 711 775 b 544 1089 738 957 665 1061 b 361 1088 482 1104 422 1101 b 158 583 140 1039 14 768 z m 381 424 b 474 354 419 394 450 379 b 468 250 514 317 511 276 b 388 228 443 238 414 229 b 331 290 335 222 318 243 b 381 424 342 332 360 372 z m 365 667 b 308 818 288 708 271 753 b 453 785 357 900 536 947 b 365 667 435 750 406 711 z "},"9":{"ha":792,"x_min":0,"x_max":0,"o":"m 417 346 b 261 208 385 275 329 221 b 132 213 221 201 175 207 b 38 171 89 214 54 203 b 54 71 21 142 24 97 b 146 14 82 46 113 26 b 510 103 286 -31 406 4 b 674 378 590 179 640 274 b 746 540 692 433 701 490 b 740 625 767 561 772 599 b 708 694 717 647 710 667 b 697 760 707 714 703 739 b 585 1003 676 846 650 932 b 317 1085 514 1083 424 1113 b 160 979 254 1065 201 1029 b 39 600 67 871 25 743 b 324 346 53 447 169 344 b 417 346 354 346 383 347 z m 394 860 b 501 650 468 800 496 729 b 408 547 507 560 519 547 b 294 663 306 546 279 569 b 339 799 303 710 319 756 b 394 860 347 819 375 836 z "},"\u0000":{"ha":0,"x_min":0,"x_max":0,"o":""},"\r":{"ha":481,"x_min":0,"x_max":0,"o":""}," ":{"ha":558,"x_min":0,"x_max":0,"o":""},"%":{"ha":836,"x_min":0,"x_max":0,"o":"m 599 976 b 138 114 426 831 214 492 b 182 -37 121 28 129 -31 b 251 17 215 -43 243 -22 b 392 354 275 140 333 246 b 744 843 489 532 610 692 b 783 890 758 858 772 874 b 785 996 807 924 807 965 b 676 1024 761 1028 717 1040 b 599 976 650 1013 624 996 z m 439 933 b 438 978 439 954 439 965 b 340 1113 426 1039 401 1090 b 179 1074 278 1133 224 1115 b 144 1040 167 1063 154 1053 b 57 765 75 963 42 872 b 288 669 79 650 194 601 b 439 933 382 736 431 828 z m 282 979 b 235 821 321 922 303 864 b 282 979 236 878 249 929 z m 374 164 b 374 143 374 157 372 150 b 469 -3 379 78 404 24 b 633 44 535 -26 588 0 b 732 268 694 106 728 182 b 701 393 735 314 725 356 b 557 433 668 442 613 458 b 507 399 538 426 524 411 b 469 372 493 392 481 382 b 410 311 449 354 424 335 b 374 164 382 267 372 217 z m 590 289 b 549 156 606 235 586 192 b 590 289 531 218 542 256 z "},"&":{"ha":1147,"x_min":0,"x_max":0,"o":"m 639 649 b 676 696 654 667 667 681 b 804 860 718 750 765 803 b 867 993 828 900 851 946 b 732 1217 901 1103 840 1194 b 486 1188 647 1229 565 1218 b 304 828 361 1133 261 993 b 336 703 315 788 326 744 b 283 643 318 682 300 664 b 106 404 222 564 163 486 b 47 225 69 353 50 290 b 204 -12 42 111 104 15 b 363 1 258 -26 310 -24 b 511 88 413 25 465 54 b 667 203 565 121 615 161 b 732 149 690 183 711 165 b 806 94 756 131 779 111 b 946 47 847 67 892 47 b 1082 160 1013 49 1068 93 b 999 306 1096 219 1065 274 b 978 315 993 310 986 311 b 865 393 943 339 906 365 b 903 438 882 411 892 424 b 1076 672 961 518 1018 593 b 1067 771 1101 707 1094 749 b 972 756 1039 793 1003 789 b 907 676 949 729 929 703 b 742 518 858 619 807 564 b 639 649 704 563 674 606 z m 508 874 b 538 1006 472 950 478 968 b 642 1060 572 1026 606 1044 b 508 874 719 1094 560 893 z m 538 351 b 471 447 349 214 344 289 b 538 351 496 414 513 388 z "},"_":{"ha":733,"x_min":0,"x_max":0,"o":"m 142 -56 b 622 -11 281 -74 479 -37 b 683 74 664 -1 692 38 b 596 138 676 113 639 136 b 276 147 490 139 383 143 b 133 140 229 147 181 149 b 44 39 75 131 42 92 b 142 -56 46 -14 82 -50 z "},"?":{"ha":851,"x_min":0,"x_max":0,"o":"m 279 964 b 532 976 315 1044 578 1119 b 475 897 515 949 497 921 b 321 740 426 843 372 794 b 221 629 283 707 250 671 b 260 304 151 529 171 375 b 364 292 297 276 333 274 b 392 392 396 314 410 349 b 431 517 369 447 386 482 b 660 722 510 582 585 651 b 799 950 724 785 775 861 b 607 1304 849 1110 769 1258 b 194 1235 461 1347 321 1321 b 51 1019 118 1183 71 1108 b 69 881 40 971 40 924 b 232 883 114 814 193 815 b 279 964 250 910 260 938 z m 324 -18 b 440 104 385 -18 440 39 b 321 218 440 167 383 221 b 208 103 258 217 208 164 b 324 -18 208 39 265 -18 z "},">":{"ha":649,"x_min":0,"x_max":0,"o":"m 314 490 b 167 393 263 456 214 425 b 106 326 144 376 122 351 b 108 231 82 293 85 257 b 201 226 129 207 165 206 b 531 372 308 283 415 335 b 571 532 606 397 626 475 b 478 613 543 561 510 588 b 201 838 388 688 293 763 b 140 874 183 851 163 867 b 47 775 81 890 25 835 b 103 685 60 743 81 710 b 263 532 154 632 211 581 b 314 490 278 517 296 504 z "},"^":{"ha":499,"x_min":0,"x_max":0,"o":"m 254 917 b 299 792 271 869 282 829 b 347 725 310 767 326 744 b 428 722 371 704 404 706 b 451 800 453 740 460 767 b 417 950 439 850 426 900 b 383 1115 404 1007 397 1063 b 289 1186 371 1169 336 1192 b 224 1126 254 1182 239 1154 b 146 976 200 1075 172 1026 b 68 850 122 933 93 893 b 47 797 58 833 50 814 b 76 736 43 771 54 747 b 144 749 100 724 125 729 b 189 811 161 768 175 788 b 254 917 211 843 231 876 z "},"]":{"ha":593,"x_min":0,"x_max":0,"o":"m 211 108 b 163 117 188 111 176 115 b 58 69 114 122 65 101 b 122 -19 43 31 67 -1 b 297 -58 179 -33 236 -50 b 481 46 401 -75 461 -42 b 515 240 497 110 510 175 b 543 1011 540 496 544 756 b 519 1196 542 1074 532 1133 b 322 1324 504 1274 439 1328 b 88 1279 242 1318 167 1294 b 58 1265 76 1276 67 1271 b 36 1206 35 1250 28 1228 b 94 1164 46 1181 67 1167 b 157 1163 114 1163 135 1163 b 219 1163 178 1163 200 1163 b 238 638 239 983 243 810 b 211 108 231 461 221 289 z "},"=":{"ha":642,"x_min":0,"x_max":0,"o":"m 190 464 b 529 475 353 444 386 457 b 589 560 574 485 594 519 b 508 617 581 593 553 613 b 329 632 449 619 388 626 b 151 657 271 640 211 653 b 61 588 108 661 72 628 b 108 488 54 550 71 506 b 190 464 133 474 163 467 z m 108 224 b 271 225 160 206 217 215 b 532 296 360 239 449 258 b 576 381 575 313 589 346 b 489 426 565 415 532 436 b 169 400 385 404 278 399 b 128 399 156 400 143 400 b 47 319 82 392 50 360 b 108 224 42 275 63 239 z "},"<":{"ha":649,"x_min":0,"x_max":0,"o":"m 338 490 b 389 532 356 504 374 517 b 549 685 440 581 497 632 b 604 775 571 710 592 743 b 511 874 626 835 571 890 b 450 838 489 867 468 851 b 174 613 358 763 264 688 b 81 532 142 588 108 561 b 121 372 25 475 46 397 b 450 226 236 335 343 283 b 543 231 486 206 522 207 b 546 326 567 257 569 293 b 485 393 529 351 507 376 b 338 490 438 425 389 456 z "},"[":{"ha":593,"x_min":0,"x_max":0,"o":"m 378 1149 b 426 1140 401 1146 413 1142 b 531 1188 475 1135 524 1156 b 467 1276 546 1226 522 1258 b 292 1315 410 1290 353 1307 b 108 1211 188 1332 128 1299 b 74 1017 92 1147 79 1082 b 46 246 49 761 44 501 b 69 61 47 183 57 124 b 267 -67 85 -17 150 -71 b 501 -22 347 -61 422 -37 b 531 -8 513 -19 522 -14 b 553 51 554 7 561 29 b 494 93 543 76 522 90 b 432 94 475 94 454 94 b 369 94 411 94 389 94 b 351 619 350 274 346 447 b 378 1149 358 796 368 968 z "},"\\":{"ha":764,"x_min":0,"x_max":0,"o":"m 351 1058 b 246 1219 328 1118 292 1174 b 153 1267 219 1249 192 1267 b 42 1178 96 1267 50 1232 b 47 1081 39 1147 39 1113 b 103 932 61 1031 78 979 b 500 64 257 651 396 365 b 557 -60 517 19 533 -21 b 660 -96 579 -97 622 -108 b 722 -12 697 -82 719 -51 b 722 17 722 -4 722 7 b 351 1058 664 397 485 724 z "},";":{"ha":374,"x_min":0,"x_max":0,"o":"m 226 54 b 281 410 288 128 351 288 b 190 442 265 435 233 444 b 96 333 135 439 92 399 b 63 129 100 264 85 197 b 107 22 49 76 63 42 b 226 54 147 3 192 11 z m 306 686 b 188 796 304 749 254 797 b 79 678 124 796 75 743 b 192 567 79 618 131 567 b 306 686 257 568 306 621 z "},"Z":{"ha":946,"x_min":0,"x_max":0,"o":"m 582 901 b 493 813 549 868 519 842 b 107 269 328 660 208 472 b 49 117 82 222 69 165 b 57 -12 31 71 26 28 b 181 -53 89 -53 135 -62 b 261 -32 210 -46 233 -39 b 660 46 390 6 524 36 b 807 28 708 49 757 54 b 906 46 844 7 881 18 b 924 150 933 78 936 111 b 843 239 907 189 878 218 b 754 271 815 251 785 265 b 444 304 651 299 547 308 b 385 304 426 304 411 304 b 410 340 396 321 403 329 b 678 657 499 444 589 550 b 864 878 740 728 800 804 b 878 1119 907 926 938 1064 b 779 1172 851 1147 815 1167 b 672 1183 744 1179 710 1183 b 218 1182 519 1183 368 1183 b 144 1171 193 1181 169 1179 b 72 982 67 1149 29 1058 b 144 904 89 950 117 922 b 338 858 201 864 269 851 b 582 901 415 869 493 885 z "},"Y":{"ha":758,"x_min":0,"x_max":0,"o":"m 372 546 b 361 519 371 542 368 531 b 271 176 319 407 285 296 b 275 14 263 122 258 67 b 361 -64 290 -29 317 -58 b 471 -11 411 -71 449 -51 b 513 89 488 19 501 54 b 750 636 575 278 657 460 b 942 994 814 754 878 874 b 979 1074 956 1019 969 1044 b 949 1207 1001 1126 989 1178 b 808 1199 906 1236 853 1233 b 771 1163 796 1189 782 1176 b 517 821 686 1049 601 933 b 488 776 508 808 499 796 b 399 929 456 832 426 881 b 308 1097 369 985 340 1042 b 236 1182 286 1129 265 1158 b 39 1107 158 1250 51 1208 b 46 990 32 1068 39 1028 b 196 724 68 888 126 801 b 372 546 250 664 311 608 z "},"X":{"ha":879,"x_min":0,"x_max":0,"o":"m 408 297 b 469 206 435 260 451 233 b 656 -53 532 119 593 31 b 785 -86 689 -97 742 -108 b 829 39 826 -62 847 -14 b 790 140 817 72 804 106 b 610 549 732 276 671 414 b 615 633 596 582 596 606 b 943 1071 726 779 835 924 b 975 1113 953 1085 965 1097 b 964 1176 988 1136 983 1163 b 899 1179 947 1192 921 1193 b 864 1147 886 1168 874 1160 b 546 774 758 1024 653 899 b 521 744 538 764 531 756 b 507 760 514 754 511 757 b 360 1094 458 872 408 983 b 329 1164 349 1117 343 1143 b 183 1235 294 1217 244 1242 b 47 1131 118 1228 71 1193 b 50 1011 32 1090 35 1050 b 106 861 67 960 82 910 b 306 443 169 722 235 585 b 282 406 300 433 290 419 b 140 119 233 310 186 215 b 122 50 131 99 126 75 b 168 -28 117 13 138 -18 b 256 0 201 -37 233 -29 b 289 60 268 18 279 39 b 408 297 328 136 367 213 z "},"W":{"ha":1329,"x_min":0,"x_max":0,"o":"m 372 301 b 363 307 369 306 367 307 b 351 429 358 347 353 389 b 329 954 343 604 338 779 b 308 1108 326 1007 319 1057 b 200 1197 294 1160 250 1193 b 94 1121 154 1200 110 1169 b 74 1031 83 1092 81 1061 b 60 440 53 836 50 639 b 121 125 64 333 78 225 b 192 4 138 82 158 40 b 440 0 263 -81 371 -81 b 475 57 451 18 465 36 b 511 150 488 86 500 119 b 632 514 551 269 592 388 b 653 464 642 492 646 479 b 799 139 688 351 731 240 b 938 -17 836 82 881 25 b 1172 32 1029 -79 1124 -62 b 1214 161 1192 74 1207 118 b 1322 1033 1272 450 1319 739 b 1317 1153 1322 1072 1321 1114 b 1228 1249 1310 1204 1272 1243 b 1115 1192 1176 1258 1136 1238 b 1093 1129 1104 1171 1099 1149 b 1038 801 1074 1021 1050 913 b 999 296 1019 635 1010 465 b 988 193 994 261 992 225 b 947 233 969 204 956 218 b 860 394 917 286 885 338 b 732 731 813 504 774 618 b 703 792 721 751 715 774 b 586 793 674 842 614 842 b 569 751 581 779 576 764 b 400 350 514 617 456 485 b 372 301 392 335 381 319 z "},"V":{"ha":718,"x_min":0,"x_max":0,"o":"m 465 485 b 454 485 460 485 458 485 b 442 535 451 500 443 518 b 363 978 414 682 392 831 b 318 1126 353 1029 340 1079 b 135 1188 288 1199 203 1221 b 64 1097 97 1167 72 1135 b 39 903 51 1032 40 967 b 76 444 33 750 51 596 b 181 119 97 332 122 222 b 279 -7 210 75 239 29 b 554 67 381 -93 519 -54 b 567 114 560 82 561 97 b 613 326 581 183 592 256 b 824 993 681 550 751 772 b 876 1147 840 1046 861 1097 b 842 1219 886 1181 871 1208 b 763 1190 813 1229 781 1219 b 733 1129 749 1171 740 1149 b 592 790 686 1015 638 903 b 465 485 549 688 506 585 z "},"U":{"ha":1235,"x_min":0,"x_max":0,"o":"m 865 581 b 874 576 869 579 872 578 b 871 540 874 564 872 553 b 897 163 861 414 865 286 b 986 -4 913 99 940 44 b 1131 -26 1031 -50 1083 -57 b 1171 110 1174 0 1193 53 b 1151 282 1147 165 1144 224 b 1186 519 1163 361 1172 440 b 1289 986 1213 678 1232 838 b 1297 1013 1290 996 1296 1004 b 1203 1201 1314 1096 1276 1174 b 1006 1129 1132 1233 1049 1201 b 963 1035 988 1099 976 1065 b 933 968 954 1013 946 989 b 669 601 857 839 772 714 b 406 321 582 506 493 414 b 331 367 340 250 331 292 b 367 768 328 501 342 636 b 410 974 378 838 394 906 b 342 1100 418 1032 392 1081 b 206 1057 293 1121 240 1106 b 165 981 189 1035 175 1007 b 88 731 138 899 108 815 b 42 335 53 600 33 467 b 100 132 46 263 63 194 b 449 58 179 -1 322 -32 b 575 183 494 93 540 136 b 836 542 665 300 749 422 b 865 581 844 556 856 568 z "},"T":{"ha":708,"x_min":0,"x_max":0,"o":"m 667 994 b 707 997 679 994 693 996 b 953 1017 789 1003 871 1010 b 1000 1028 968 1018 983 1021 b 1113 1172 1075 1047 1117 1103 b 978 1292 1104 1236 1053 1289 b 710 1288 889 1294 797 1299 b 293 1221 571 1271 433 1244 b 92 1179 225 1208 158 1194 b 18 1089 43 1169 17 1132 b 100 996 18 1042 50 1004 b 122 994 107 994 115 994 b 343 989 194 992 268 990 b 401 989 361 985 378 989 b 340 100 324 693 296 425 b 381 -33 347 53 361 7 b 490 -86 401 -74 443 -92 b 586 -6 540 -79 571 -51 b 594 51 590 14 593 32 b 617 354 603 153 607 254 b 638 529 621 414 631 471 b 667 994 643 629 660 889 z "},"S":{"ha":950,"x_min":0,"x_max":0,"o":"m 339 740 b 615 894 424 817 511 874 b 750 856 668 904 713 901 b 863 861 782 818 829 822 b 893 983 892 896 906 938 b 794 1106 879 1040 844 1078 b 551 1142 718 1147 636 1157 b 156 926 397 1115 267 1040 b 96 849 133 903 113 878 b 196 549 26 728 67 603 b 335 510 242 529 288 519 b 542 438 406 492 479 478 b 542 293 629 382 706 303 b 301 308 463 296 382 300 b 185 343 263 314 222 326 b 60 326 138 361 93 358 b 40 200 26 297 18 247 b 149 81 65 149 100 108 b 557 -26 274 7 410 -35 b 826 86 658 -19 751 14 b 906 383 911 169 940 269 b 813 529 890 440 854 488 b 519 692 729 611 629 661 b 339 740 463 710 407 724 z "},"R":{"ha":1129,"x_min":0,"x_max":0,"o":"m 644 449 b 758 510 686 471 722 489 b 994 700 846 561 928 621 b 1092 874 1036 751 1071 810 b 956 1206 1132 1011 1081 1139 b 844 1247 921 1224 883 1240 b 428 1254 707 1285 567 1281 b 199 1178 347 1239 272 1215 b 65 1067 146 1150 100 1114 b 32 958 42 1033 28 1001 b 82 888 35 928 50 901 b 167 899 111 872 140 878 b 214 939 183 911 197 928 b 246 957 222 949 235 953 b 181 811 214 913 188 865 b 168 693 176 772 172 733 b 160 474 165 621 163 549 b 89 450 136 465 111 460 b 29 356 46 433 22 396 b 124 286 39 311 74 285 b 171 289 139 286 153 288 b 190 154 178 242 181 196 b 235 6 201 103 214 54 b 331 -49 250 -33 286 -53 b 415 29 372 -44 404 -15 b 426 96 419 53 424 74 b 431 219 429 138 429 179 b 440 372 433 268 438 314 b 481 344 461 358 471 351 b 697 153 553 279 622 213 b 896 6 760 100 828 53 b 985 -29 921 -14 956 -22 b 1082 22 1029 -35 1068 -11 b 1067 128 1099 61 1093 97 b 1017 174 1050 144 1033 160 b 701 407 911 251 806 329 b 644 449 683 418 667 432 z m 364 1008 b 739 1032 493 1042 614 1058 b 806 1011 761 1029 783 1021 b 829 943 840 993 843 978 b 804 899 822 928 815 913 b 478 633 719 788 604 714 b 493 718 486 668 490 693 b 492 879 504 774 508 826 b 364 1008 467 954 446 976 z "},"Q":{"ha":946,"x_min":0,"x_max":0,"o":"m 647 4 b 699 -25 669 -8 683 -18 b 783 -57 725 -39 754 -53 b 867 10 832 -62 868 -33 b 829 71 865 35 851 53 b 774 125 810 89 790 107 b 776 135 776 132 776 133 b 782 146 779 138 781 142 b 899 883 926 372 947 619 b 796 1104 885 964 853 1039 b 515 1243 725 1190 632 1242 b 235 1104 393 1244 301 1193 b 108 818 171 1018 132 922 b 94 769 104 801 103 783 b 63 307 36 619 26 467 b 183 64 82 218 119 136 b 604 -18 294 -61 461 -93 b 647 4 617 -10 632 -3 z m 453 226 b 343 686 261 292 296 521 b 347 724 346 699 344 713 b 490 931 379 803 428 872 b 499 936 493 933 494 935 b 606 917 546 971 574 965 b 661 771 636 872 651 822 b 622 435 676 654 664 542 b 608 411 617 428 613 422 b 554 489 589 440 574 465 b 407 506 511 536 447 546 b 379 425 383 486 374 456 b 414 301 386 383 401 340 b 453 226 425 278 439 254 z "},"'":{"ha":310,"x_min":0,"x_max":0,"o":"m 235 1172 b 226 1246 232 1201 232 1225 b 157 1296 215 1282 189 1299 b 100 1239 129 1293 103 1274 b 83 1050 93 1176 89 1113 b 115 1000 82 1026 94 1008 b 178 1008 138 989 160 989 b 210 1060 192 1022 206 1040 b 235 1172 222 1099 229 1139 z "},"@":{"ha":1438,"x_min":0,"x_max":0,"o":"m 964 239 b 1090 299 1014 261 1057 274 b 1383 875 1281 444 1393 632 b 1088 1300 1378 1078 1279 1225 b 690 1300 956 1353 822 1344 b 43 467 350 1186 71 825 b 133 125 33 342 56 224 b 557 -42 239 -14 390 -49 b 894 40 674 -36 785 1 b 968 76 921 47 946 60 b 982 231 1026 117 1031 181 b 964 239 978 235 969 235 z m 731 408 b 871 256 760 340 801 286 b 628 192 790 226 713 203 b 453 190 571 182 513 178 b 297 367 357 210 306 268 b 375 707 289 486 319 600 b 649 1010 439 833 529 935 b 900 1089 725 1057 810 1089 b 1164 800 1071 1089 1183 971 b 990 493 1149 675 1088 572 b 974 483 986 488 981 485 b 963 482 969 482 967 482 b 953 571 949 510 949 542 b 975 671 957 603 968 638 b 932 786 989 725 976 754 b 894 821 918 796 906 807 b 524 824 792 954 625 958 b 424 418 432 704 394 568 b 454 342 428 392 440 367 b 642 313 500 274 579 260 b 731 408 674 338 699 372 z m 574 422 b 568 456 571 432 567 444 b 643 660 576 529 599 600 b 744 664 676 701 692 710 b 585 417 701 576 654 489 b 574 422 581 418 578 419 z "},"A":{"ha":758,"x_min":0,"x_max":0,"o":"m 453 243 b 468 203 458 231 461 218 b 519 60 483 157 497 106 b 574 -14 532 33 551 7 b 689 -22 607 -43 653 -44 b 731 79 724 -3 739 35 b 722 124 728 94 724 108 b 685 586 710 276 699 431 b 650 933 674 701 665 818 b 589 1157 640 1010 624 1086 b 475 1225 565 1204 532 1233 b 444 1229 464 1225 456 1228 b 353 1175 397 1236 368 1219 b 336 1110 344 1154 340 1132 b 90 282 256 833 172 558 b -4 4 63 189 29 97 b 21 -78 -15 -32 -7 -60 b 107 -58 47 -94 83 -89 b 135 -17 119 -47 128 -32 b 178 72 149 11 163 43 b 231 201 196 117 214 160 b 453 243 306 215 375 231 z m 425 365 b 288 350 376 360 336 354 b 375 597 319 436 346 517 b 382 594 376 597 381 594 b 425 365 396 522 411 447 z "},"B":{"ha":1124,"x_min":0,"x_max":0,"o":"m 731 667 b 803 719 757 686 781 701 b 974 929 878 775 940 840 b 919 1206 1013 1031 996 1124 b 763 1299 876 1253 822 1281 b 396 1318 642 1340 519 1338 b 118 1215 297 1300 204 1268 b 43 1153 90 1197 65 1176 b 29 1047 14 1121 10 1081 b 128 1013 47 1015 83 1001 b 206 1038 156 1017 181 1028 b 569 1093 322 1083 444 1107 b 633 879 732 1078 786 996 b 399 701 558 817 476 761 b 374 692 394 697 383 697 b 372 742 374 713 375 726 b 340 899 363 794 357 849 b 221 989 324 953 281 988 b 97 911 164 990 124 958 b 74 853 88 893 82 874 b 50 660 58 790 49 725 b 63 356 54 560 57 457 b 92 136 69 282 82 211 b 79 131 86 135 83 132 b 22 63 47 119 24 100 b 74 -12 21 25 43 3 b 197 -51 115 -28 156 -43 b 735 -19 376 -74 557 -58 b 993 119 832 3 921 44 b 979 542 1114 246 1108 424 b 882 608 951 567 918 590 b 731 667 836 633 785 647 z m 340 122 b 357 460 347 238 351 349 b 529 483 414 483 472 488 b 701 451 588 478 646 467 b 789 403 735 444 764 425 b 794 278 836 365 839 319 b 685 208 763 250 725 224 b 413 133 597 169 507 149 b 340 122 393 131 372 126 z "},"C":{"ha":932,"x_min":0,"x_max":0,"o":"m 454 963 b 568 964 500 1015 528 1022 b 688 783 608 904 647 843 b 744 711 706 758 724 732 b 854 689 776 678 817 674 b 910 783 892 706 914 742 b 761 1182 893 929 850 1065 b 447 1249 685 1282 560 1307 b 351 1182 414 1231 379 1208 b 40 364 119 957 14 685 b 221 29 50 228 117 117 b 453 -64 289 -25 365 -60 b 869 196 626 -71 797 36 b 893 390 897 258 904 325 b 860 472 888 421 875 449 b 683 483 817 538 738 542 b 647 433 669 467 660 450 b 561 311 619 392 593 350 b 414 274 515 253 478 247 b 286 465 329 311 292 378 b 454 963 276 653 336 817 z "},"D":{"ha":965,"x_min":0,"x_max":0,"o":"m 124 993 b 126 978 125 985 128 981 b 106 903 119 953 115 928 b 76 242 40 685 39 463 b 67 139 82 204 85 172 b 164 -44 31 56 79 -24 b 331 -26 221 -58 278 -46 b 638 139 442 14 544 67 b 932 685 821 276 922 456 b 574 1219 939 933 799 1147 b 267 1238 472 1254 369 1254 b 31 1139 179 1225 100 1194 b -54 1014 -10 1106 -40 1067 b -28 924 -65 976 -54 940 b 65 942 1 904 35 914 b 124 993 85 960 103 975 z m 351 335 b 365 1051 353 579 394 811 b 436 1043 389 1050 414 1050 b 650 676 617 1003 707 850 b 351 335 604 525 494 419 z "},"E":{"ha":1029,"x_min":0,"x_max":0,"o":"m 169 926 b 121 754 153 867 132 811 b 100 581 110 697 108 639 b 75 535 97 564 83 547 b 81 428 44 492 43 460 b 103 386 96 417 101 403 b 128 158 110 311 118 236 b 68 119 110 147 89 135 b 25 11 32 93 14 57 b 114 -65 36 -33 69 -57 b 158 -67 128 -69 144 -69 b 267 -56 194 -64 231 -62 b 871 72 468 -18 672 18 b 940 92 893 76 918 81 b 958 285 1022 126 1029 233 b 861 313 928 304 896 311 b 558 285 758 314 658 304 b 346 232 489 269 422 250 b 378 467 356 313 367 388 b 658 497 474 478 567 488 b 725 549 697 500 719 517 b 672 619 731 581 710 611 b 592 631 644 626 618 629 b 413 631 533 632 475 631 b 463 940 431 733 447 836 b 693 940 542 940 615 938 b 835 946 739 940 789 938 b 963 1101 910 963 963 1029 b 833 1253 963 1175 913 1236 b 721 1254 796 1260 757 1260 b 560 1219 668 1246 613 1232 b 226 1135 447 1193 338 1165 b 142 1097 196 1128 168 1115 b 146 940 76 1057 79 979 b 169 926 153 933 158 931 z "},"F":{"ha":864,"x_min":0,"x_max":0,"o":"m 392 568 b 432 917 406 690 418 804 b 457 922 443 919 451 922 b 871 950 593 933 732 940 b 1004 978 915 956 960 964 b 1063 1075 1046 992 1067 1025 b 992 1178 1061 1122 1035 1156 b 936 1197 972 1188 954 1193 b 600 1214 825 1218 711 1226 b 83 1147 428 1194 256 1169 b -17 1118 49 1140 14 1131 b -67 1031 -53 1103 -72 1074 b -3 939 -65 988 -40 958 b 54 921 14 929 36 924 b 178 907 94 914 133 911 b 171 878 174 897 174 886 b 121 607 156 788 133 697 b 67 507 113 563 108 531 b 89 383 13 475 26 415 b 107 375 94 381 99 379 b 107 344 104 365 106 356 b 132 76 115 257 122 167 b 163 -7 136 50 147 18 b 260 -62 183 -44 218 -62 b 343 -7 303 -62 331 -43 b 357 68 353 17 357 43 b 367 358 363 165 364 261 b 411 403 371 399 372 399 b 585 417 471 407 528 411 b 757 436 642 421 700 428 b 806 500 793 443 810 469 b 739 558 801 532 779 554 b 657 568 711 563 685 568 b 392 568 571 568 486 568 z "},"H":{"ha":1172,"x_min":0,"x_max":0,"o":"m 432 463 b 436 649 436 528 436 586 b 446 993 440 763 446 878 b 426 1163 444 1050 438 1108 b 297 1272 411 1233 361 1272 b 165 1176 242 1276 188 1239 b 136 1036 150 1129 139 1082 b 114 631 125 901 118 764 b 113 428 111 561 113 496 b 67 414 97 421 82 419 b 21 335 35 399 17 369 b 85 269 25 300 49 278 b 133 264 101 267 117 265 b 147 182 138 232 139 207 b 189 7 160 122 172 65 b 263 -85 201 -32 228 -62 b 406 -1 328 -121 406 -76 b 413 200 408 64 410 133 b 421 301 414 235 419 267 b 842 383 565 331 703 357 b 874 150 850 304 864 225 b 893 11 878 106 885 57 b 901 -22 894 -1 899 -10 b 975 -85 913 -60 938 -81 b 1063 -43 1013 -90 1046 -75 b 1094 64 1078 -8 1090 29 b 1121 425 1104 185 1111 304 b 1140 501 1121 451 1139 476 b 1124 581 1139 529 1124 556 b 1132 786 1125 649 1131 717 b 1125 1054 1132 875 1129 965 b 1097 1147 1122 1085 1110 1117 b 1000 1204 1079 1186 1046 1207 b 915 1143 958 1203 931 1179 b 889 1058 903 1117 893 1085 b 843 675 872 931 854 803 b 836 518 838 625 839 574 b 432 463 701 500 572 479 z "},"(":{"ha":706,"x_min":0,"x_max":0,"o":"m 357 1218 b 421 -39 18 931 -122 200 b 576 126 632 -144 713 46 b 601 1143 172 367 232 821 b 631 1243 635 1172 649 1207 b 543 1306 617 1281 585 1306 b 454 1288 511 1304 481 1301 b 357 1218 418 1269 386 1244 z "},"G":{"ha":1226,"x_min":0,"x_max":0,"o":"m 757 356 b 507 235 706 300 575 239 b 418 281 471 231 435 244 b 365 419 396 325 372 372 b 660 967 329 651 450 881 b 754 990 688 979 722 986 b 911 871 838 999 893 956 b 918 824 914 856 915 840 b 933 769 922 804 925 786 b 1063 724 960 711 1018 689 b 1114 790 1083 740 1103 765 b 925 1211 1174 940 1089 1128 b 614 1249 821 1264 718 1268 b 39 454 232 1174 0 851 b 175 113 49 329 88 211 b 578 -36 288 -14 421 -68 b 890 129 701 -12 799 51 b 928 161 900 140 911 146 b 938 71 932 126 935 100 b 979 -32 944 33 956 -1 b 1072 -68 1006 -67 1040 -81 b 1107 11 1101 -56 1111 -32 b 1100 122 1101 47 1099 88 b 1119 319 1106 189 1114 254 b 1157 383 1119 353 1125 372 b 1199 464 1190 396 1206 425 b 1139 542 1194 500 1172 529 b 1056 569 1113 554 1083 564 b 701 581 938 585 819 589 b 608 561 669 576 636 571 b 546 482 571 551 547 525 b 617 392 547 447 575 410 b 696 367 642 381 669 374 b 757 356 714 361 735 358 z "},"I":{"ha":378,"x_min":0,"x_max":0,"o":"m 46 701 b 50 167 42 536 24 332 b 81 21 57 119 65 67 b 193 -56 99 -33 146 -58 b 296 47 246 -51 286 -14 b 304 128 301 72 303 100 b 315 297 307 183 307 240 b 382 879 335 490 358 683 b 367 1071 390 944 392 1010 b 128 1107 321 1181 204 1197 b 63 949 89 1063 67 1008 b 46 701 56 865 50 783 z "},")":{"ha":706,"x_min":0,"x_max":0,"o":"m 344 -57 b 281 1200 683 231 824 961 b 125 1035 69 1306 -11 1115 b 100 18 529 794 469 340 b 71 -82 67 -11 53 -46 b 158 -144 85 -119 117 -144 b 247 -126 190 -143 221 -140 b 344 -57 283 -108 315 -83 z "},"*":{"ha":533,"x_min":0,"x_max":0,"o":"m 190 847 b 183 754 188 810 183 782 b 226 697 183 719 200 700 b 286 736 256 693 275 706 b 300 785 293 750 296 768 b 313 825 304 797 307 808 b 358 783 332 808 344 796 b 440 774 393 757 419 754 b 433 851 460 794 458 819 b 388 907 418 871 401 889 b 357 944 375 919 364 933 b 369 957 363 951 364 956 b 435 996 390 971 413 982 b 485 1032 451 1008 469 1017 b 496 1088 501 1047 504 1067 b 443 1111 486 1110 465 1115 b 410 1099 432 1110 421 1104 b 353 1072 393 1090 374 1083 b 346 1135 350 1097 350 1115 b 285 1192 339 1172 317 1193 b 226 1129 256 1190 233 1167 b 224 1083 225 1115 225 1100 b 178 1113 206 1094 192 1104 b 129 1133 161 1122 146 1129 b 72 1108 106 1138 85 1129 b 82 1050 63 1086 68 1067 b 111 1022 90 1039 103 1032 b 161 976 129 1008 144 993 b 142 960 150 969 146 964 b 63 900 115 940 86 924 b 60 825 42 878 43 847 b 133 814 79 804 106 799 b 190 847 150 822 167 833 z "},"J":{"ha":1017,"x_min":0,"x_max":0,"o":"m 774 972 b 774 940 774 958 775 949 b 713 675 756 851 738 763 b 561 351 681 558 632 449 b 339 206 506 274 435 218 b 143 208 275 197 211 196 b 36 164 94 219 56 203 b 57 51 15 126 22 82 b 157 -10 88 26 122 4 b 482 -50 263 -50 371 -61 b 768 94 597 -40 696 6 b 883 264 811 147 854 204 b 1014 769 964 422 1006 593 b 1014 1035 1019 857 1014 944 b 1046 1040 1024 1036 1035 1038 b 1082 1204 1115 1064 1135 1153 b 1028 1235 1065 1217 1047 1231 b 900 1249 986 1243 943 1250 b 485 1181 760 1244 621 1217 b 283 1090 413 1164 344 1136 b 217 1021 258 1072 233 1049 b 311 808 164 935 211 829 b 425 828 351 800 389 813 b 685 939 511 864 597 903 b 774 972 713 951 742 960 z "},"K":{"ha":1111,"x_min":0,"x_max":0,"o":"m 353 399 b 365 390 358 394 364 393 b 669 94 456 278 558 183 b 813 -1 714 58 764 26 b 900 -31 839 -15 871 -26 b 1033 24 953 -43 1007 -18 b 1018 156 1061 67 1056 115 b 961 206 1003 175 982 190 b 822 297 915 238 867 265 b 572 474 738 356 654 415 b 518 525 554 488 536 506 b 656 631 568 561 613 596 b 981 883 765 713 872 794 b 1064 975 1014 908 1040 942 b 1065 1110 1100 1019 1096 1071 b 921 1144 1033 1150 976 1164 b 818 1088 885 1129 849 1110 b 624 925 750 1036 685 982 b 394 706 546 854 472 779 b 338 682 379 689 365 671 b 338 729 338 697 335 713 b 360 1006 344 821 357 913 b 340 1146 363 1054 356 1103 b 217 1225 322 1197 276 1225 b 88 1150 157 1225 113 1200 b 67 1085 78 1129 68 1107 b 47 210 42 793 46 501 b 56 54 47 157 51 104 b 81 -31 61 25 68 -4 b 183 -86 99 -75 139 -94 b 251 0 225 -79 247 -46 b 281 356 260 121 272 240 b 353 399 308 372 331 386 z "},"+":{"ha":624,"x_min":0,"x_max":0,"o":"m 468 540 b 485 638 474 575 481 606 b 401 775 492 701 460 754 b 257 714 346 792 288 768 b 231 625 242 686 238 656 b 221 549 226 601 225 575 b 192 547 208 549 200 547 b 104 543 163 544 133 547 b 44 469 67 536 43 506 b 108 408 47 436 69 413 b 154 408 124 406 139 408 b 232 408 181 408 208 408 b 297 265 254 358 272 310 b 419 215 329 214 376 197 b 464 339 464 235 478 276 b 451 418 458 365 454 390 b 535 433 483 425 508 428 b 586 490 569 439 590 463 b 526 540 585 519 561 539 b 468 540 508 542 492 540 z "},",":{"ha":371,"x_min":0,"x_max":0,"o":"m 226 -90 b 281 265 288 -17 351 143 b 190 297 265 290 233 300 b 96 189 135 294 92 254 b 63 -15 100 119 85 53 b 107 -122 49 -68 63 -103 b 226 -90 147 -142 192 -133 z "},"L":{"ha":913,"x_min":0,"x_max":0,"o":"m 361 217 b 360 260 361 235 357 246 b 389 557 369 361 374 460 b 476 1071 414 731 447 900 b 481 1169 481 1104 483 1136 b 415 1254 479 1211 456 1242 b 311 1233 375 1274 340 1261 b 271 1182 293 1221 281 1201 b 228 1081 253 1149 242 1114 b 156 399 156 858 149 629 b 168 179 157 325 164 254 b 118 158 150 174 136 167 b 56 114 97 146 74 133 b 100 -51 -4 57 19 -32 b 182 -54 125 -56 156 -54 b 651 -56 339 -54 494 -53 b 829 -3 718 -58 778 -44 b 825 211 901 57 900 153 b 631 253 767 254 701 263 b 361 217 543 238 454 228 z "},"M":{"ha":1190,"x_min":0,"x_max":0,"o":"m 797 672 b 808 669 800 672 804 669 b 811 639 810 660 810 650 b 811 428 811 571 810 500 b 842 136 818 332 828 233 b 931 -29 850 72 879 17 b 1124 -8 999 -89 1082 -82 b 1154 81 1139 18 1149 49 b 1153 218 1158 125 1157 172 b 1147 886 1126 442 1133 664 b 1132 1153 1151 972 1156 1063 b 1008 1275 1115 1221 1068 1268 b 871 1194 943 1283 904 1260 b 797 1058 849 1146 825 1101 b 518 554 692 899 592 735 b 503 533 515 550 510 543 b 472 615 490 564 481 590 b 324 1033 422 754 374 893 b 279 1117 311 1063 300 1093 b 82 1096 218 1193 111 1181 b 69 1017 72 1069 71 1043 b 54 628 64 886 58 756 b 31 132 44 461 36 296 b 42 44 28 101 32 72 b 122 -22 53 6 82 -18 b 211 19 161 -29 194 -15 b 233 89 221 40 231 67 b 257 324 244 168 251 246 b 269 504 263 379 265 436 b 304 453 285 482 296 465 b 403 333 338 414 367 367 b 643 371 489 260 596 278 b 700 482 663 407 681 444 b 797 672 732 546 765 610 z "},"-":{"ha":626,"x_min":0,"x_max":0,"o":"m 218 489 b 218 490 218 490 218 490 b 135 490 189 490 161 492 b 44 407 86 488 49 451 b 113 306 38 364 65 321 b 174 296 132 299 154 294 b 351 308 233 299 293 303 b 519 340 408 315 464 326 b 575 415 558 349 578 382 b 500 479 571 453 542 478 b 218 489 407 483 311 485 z "},".":{"ha":326,"x_min":0,"x_max":0,"o":"m 276 88 b 158 197 275 150 225 199 b 50 79 94 197 46 144 b 163 -32 50 19 101 -32 b 276 88 228 -31 276 22 z "},"N":{"ha":913,"x_min":0,"x_max":0,"o":"m 251 413 b 263 413 256 413 260 413 b 275 392 265 406 271 399 b 531 42 347 265 435 150 b 601 -25 553 19 576 -6 b 675 -61 624 -39 650 -53 b 814 53 756 -78 814 -29 b 815 146 814 85 813 115 b 869 492 832 261 844 378 b 1001 1007 908 665 958 835 b 1018 1132 1010 1047 1019 1090 b 904 1263 1017 1196 965 1249 b 744 1194 844 1275 783 1250 b 678 1026 710 1144 692 1086 b 614 506 640 856 626 681 b 608 442 613 486 610 464 b 576 488 592 457 583 471 b 321 1010 492 661 407 836 b 243 1131 300 1051 272 1093 b 96 1171 201 1183 147 1194 b 32 1032 46 1147 21 1096 b 38 975 33 1013 38 994 b 49 496 42 817 47 656 b 49 79 50 357 49 218 b 53 28 49 63 49 46 b 118 -43 58 -11 85 -36 b 201 7 150 -49 185 -29 b 224 79 211 28 221 53 b 244 290 232 149 239 219 b 251 413 247 331 249 371 z "},"O":{"ha":840,"x_min":0,"x_max":0,"o":"m 728 226 b 781 903 815 442 844 674 b 658 1118 756 986 718 1058 b 392 1226 585 1192 497 1233 b 146 1056 279 1215 201 1150 b 85 919 121 1011 100 965 b 243 -26 7 678 -6 114 b 597 31 354 -87 492 -72 b 728 226 656 85 696 154 z m 332 958 b 457 958 385 1001 417 1001 b 521 810 493 915 511 864 b 442 257 556 617 532 432 b 394 194 428 235 414 213 b 325 197 372 171 346 172 b 288 250 308 210 296 232 b 251 442 260 310 250 375 b 260 633 254 507 250 571 b 335 872 268 718 286 803 b 332 958 356 899 356 931 z "},"P":{"ha":1068,"x_min":0,"x_max":0,"o":"m 257 1011 b 146 765 174 940 150 858 b 132 421 139 650 135 535 b 100 356 132 394 126 374 b 96 213 51 319 49 250 b 139 121 131 188 135 157 b 168 -21 147 74 154 26 b 275 -87 182 -69 228 -93 b 367 -4 322 -85 357 -51 b 374 74 372 24 372 49 b 382 175 378 108 379 144 b 590 238 453 197 524 215 b 1004 619 782 303 925 429 b 736 1225 1108 879 1000 1128 b 310 1250 597 1275 453 1278 b 133 1181 247 1236 188 1215 b 35 1060 88 1151 50 1114 b 72 957 22 1017 38 976 b 175 972 104 936 139 940 b 257 1011 196 990 218 1003 z m 321 1022 b 603 1010 417 1049 511 1040 b 700 682 767 954 807 815 b 407 468 624 586 521 525 b 439 658 410 536 424 597 b 467 763 449 693 460 726 b 460 910 478 811 472 863 b 321 1022 440 978 394 1017 z "},"/":{"ha":764,"x_min":0,"x_max":0,"o":"m 408 1058 b 38 17 275 724 96 397 b 38 -12 38 7 38 -4 b 100 -96 40 -51 63 -82 b 203 -60 138 -108 181 -97 b 260 64 226 -21 243 19 b 657 932 364 365 503 651 b 713 1081 682 979 699 1031 b 718 1178 721 1113 721 1147 b 607 1267 710 1232 664 1267 b 514 1219 568 1267 540 1249 b 408 1058 468 1174 432 1118 z "},"$":{"ha":654,"x_min":0,"x_max":0,"o":"m 349 850 b 397 764 467 939 489 846 b 378 690 369 739 365 717 b 457 661 390 665 426 647 b 525 710 482 672 510 688 b 610 850 558 753 589 800 b 503 1056 649 943 600 1031 b 447 1069 485 1061 468 1067 b 478 1129 460 1093 469 1111 b 446 1225 490 1167 478 1207 b 344 1204 411 1244 369 1235 b 321 1165 333 1192 326 1178 b 288 1063 307 1131 292 1096 b 233 985 281 1028 264 1004 b 151 908 204 963 176 938 b 146 631 79 824 76 717 b 268 519 181 589 228 556 b 364 442 300 493 333 471 b 358 340 399 404 396 375 b 318 310 346 328 332 317 b 183 363 264 285 203 311 b 106 424 168 407 139 429 b 38 342 67 421 40 389 b 115 160 31 267 61 207 b 200 101 140 139 171 119 b 200 -28 200 58 196 14 b 293 -117 207 -86 247 -124 b 357 -11 340 -110 361 -72 b 351 67 354 17 353 46 b 485 136 403 92 447 108 b 503 565 607 226 672 419 b 432 615 481 585 457 601 b 343 679 403 639 371 657 b 349 850 264 742 235 767 z "},"`":{"ha":572,"x_min":0,"x_max":0,"o":"m 125 1329 b 79 1086 17 1288 33 1172 b 240 900 118 1015 174 951 b 385 831 282 864 331 840 b 431 824 401 826 417 824 b 528 886 479 824 517 847 b 482 996 542 928 526 975 b 353 1138 419 1025 383 1078 b 313 1221 339 1164 326 1193 b 271 1288 301 1242 289 1267 b 125 1329 233 1332 176 1350 z "},"a":{"ha":849,"x_min":0,"x_max":0,"o":"m 513 169 b 536 90 522 139 526 115 b 636 14 553 43 588 15 b 736 81 681 13 717 39 b 764 158 749 106 756 132 b 803 604 804 306 811 454 b 451 990 789 803 713 1044 b 100 767 308 958 194 876 b 38 661 75 735 54 699 b 68 561 19 621 35 583 b 175 574 104 538 143 542 b 196 597 183 581 189 589 b 361 735 242 656 297 700 b 503 572 525 832 515 704 b 425 579 476 574 451 579 b 96 442 294 583 182 543 b 94 78 10 335 11 179 b 349 25 161 -1 260 -24 b 449 103 386 44 418 76 b 513 169 472 121 490 146 z m 496 365 b 272 190 424 299 365 222 b 279 308 250 232 250 271 b 496 365 321 361 422 390 z "},"b":{"ha":789,"x_min":0,"x_max":0,"o":"m 339 776 b 326 783 336 778 329 779 b 360 974 338 847 347 910 b 226 1290 379 1081 367 1267 b 46 1028 99 1299 46 1138 b 38 668 44 908 44 788 b 46 178 33 504 29 342 b 74 29 50 128 60 76 b 165 -35 88 -11 121 -36 b 251 29 210 -33 235 -8 b 271 85 260 49 265 68 b 278 89 274 88 276 89 b 319 85 290 88 304 88 b 568 164 413 82 499 100 b 750 660 714 296 779 467 b 369 803 721 857 528 926 b 339 776 360 794 349 786 z m 285 251 b 329 488 283 333 279 417 b 418 621 361 533 386 579 b 493 681 439 644 465 664 b 553 656 522 697 543 689 b 557 550 560 621 561 583 b 456 328 547 467 511 393 b 285 251 413 274 357 247 z "},"c":{"ha":661,"x_min":0,"x_max":0,"o":"m 343 747 b 381 701 357 731 369 717 b 426 647 396 683 410 664 b 535 624 457 617 494 607 b 589 724 572 638 592 676 b 526 879 585 783 564 836 b 333 949 475 939 411 964 b 144 814 251 931 189 879 b 53 293 38 654 6 481 b 197 54 78 199 124 118 b 558 89 314 -47 464 -33 b 574 111 564 96 571 103 b 604 447 640 218 647 331 b 525 514 590 483 568 513 b 436 456 478 518 454 490 b 411 399 428 436 421 417 b 336 296 390 360 371 324 b 343 747 217 411 218 647 z "},"d":{"ha":838,"x_min":0,"x_max":0,"o":"m 575 243 b 585 144 579 203 579 172 b 604 29 589 106 593 67 b 676 -22 615 -4 640 -22 b 744 29 711 -22 732 -1 b 757 75 751 43 756 58 b 768 239 761 129 765 183 b 881 1178 779 557 851 863 b 764 1329 883 1253 832 1313 b 564 1188 668 1353 578 1292 b 560 736 543 1038 564 889 b 540 740 550 739 546 739 b 200 681 411 803 299 774 b 38 349 106 592 54 479 b 67 147 29 281 36 211 b 361 43 122 31 246 -17 b 471 128 401 64 436 96 b 575 243 504 158 536 197 z m 506 474 b 303 285 443 407 386 342 b 382 501 307 374 326 444 b 506 474 415 542 458 532 z "},"e":{"ha":833,"x_min":0,"x_max":0,"o":"m 390 329 b 439 347 408 339 424 343 b 686 578 553 390 638 467 b 490 933 757 740 663 907 b 103 739 328 961 169 871 b 49 369 39 621 26 497 b 199 104 69 263 117 172 b 444 24 268 43 351 8 b 756 203 567 46 674 107 b 794 297 776 228 793 267 b 668 389 806 372 738 419 b 639 369 660 383 649 372 b 486 299 589 346 536 322 b 390 329 451 288 415 292 z m 306 513 b 381 718 306 597 319 667 b 514 742 422 757 489 764 b 494 615 538 717 532 660 b 306 513 449 557 393 513 z "},"f":{"ha":828,"x_min":0,"x_max":0,"o":"m 506 506 b 633 753 525 624 522 774 b 771 797 689 742 736 757 b 793 935 806 838 810 883 b 693 1044 774 986 739 1018 b 360 968 582 1104 449 1075 b 233 696 290 889 256 794 b 201 528 219 640 213 586 b 165 526 189 528 176 526 b 126 526 151 526 140 526 b 42 457 83 521 51 496 b 81 354 32 417 43 378 b 200 306 118 335 158 322 b 207 257 201 292 206 274 b 244 21 219 178 231 99 b 290 -118 256 -26 275 -72 b 328 -176 300 -139 313 -160 b 443 -210 360 -214 396 -224 b 514 -114 482 -199 514 -161 b 494 71 508 -50 501 11 b 492 310 490 151 482 232 b 536 317 507 314 522 314 b 689 353 586 328 638 335 b 742 444 729 367 750 410 b 649 508 732 485 693 511 b 628 506 640 508 633 506 b 506 506 588 506 547 506 z "},"g":{"ha":968,"x_min":0,"x_max":0,"o":"m 696 833 b 413 978 640 964 547 1011 b 263 901 354 963 306 938 b 49 550 150 810 79 692 b 72 333 33 478 35 403 b 338 243 124 226 232 189 b 424 307 371 257 400 281 b 636 528 499 378 565 456 b 676 569 646 539 657 550 b 600 238 660 447 643 340 b 185 61 533 76 310 14 b 85 42 150 75 114 72 b 69 -64 57 13 49 -26 b 143 -146 88 -94 114 -125 b 240 -179 169 -162 206 -174 b 504 -192 325 -203 415 -201 b 824 25 646 -175 756 -103 b 885 179 849 74 868 126 b 924 549 917 297 928 422 b 892 853 919 651 904 751 b 826 931 888 890 871 921 b 715 882 781 936 738 919 b 696 833 710 868 704 853 z m 294 471 b 469 738 317 586 361 682 b 525 738 486 747 506 761 b 528 658 539 721 543 672 b 294 471 456 590 382 525 z "},"h":{"ha":792,"x_min":0,"x_max":0,"o":"m 339 653 b 328 661 335 654 332 656 b 403 997 351 772 376 885 b 431 1139 411 1044 422 1092 b 390 1282 436 1192 422 1239 b 194 1311 340 1350 263 1363 b 106 1153 140 1269 114 1217 b 81 906 97 1068 89 986 b 65 128 50 644 39 386 b 93 33 68 96 76 61 b 265 38 131 -33 228 -31 b 281 85 272 50 278 67 b 485 536 315 249 389 397 b 553 603 500 558 517 579 b 544 464 550 550 553 507 b 493 219 531 382 510 300 b 488 89 485 176 475 135 b 583 1 503 42 532 10 b 725 133 661 -14 719 60 b 744 551 743 272 757 410 b 707 690 740 599 726 649 b 467 761 661 789 560 815 b 372 688 432 742 406 714 b 339 653 363 678 351 664 z "},"i":{"ha":381,"x_min":0,"x_max":0,"o":"m 336 433 b 324 564 343 476 349 515 b 136 626 290 639 218 661 b 44 494 78 599 46 554 b 46 326 43 439 43 383 b 81 88 54 244 68 167 b 103 35 82 69 90 51 b 186 -10 118 7 149 -14 b 264 49 229 -7 254 15 b 275 107 269 68 274 88 b 336 433 296 217 317 325 z m 188 1006 b 121 979 172 1004 142 996 b 61 776 61 946 32 833 b 276 738 99 703 214 678 b 347 850 307 767 332 811 b 188 1006 374 932 299 1008 z "},"j":{"ha":399,"x_min":0,"x_max":0,"o":"m 325 203 b 324 294 325 233 326 264 b 275 508 315 367 311 440 b 171 554 253 549 211 565 b 113 456 133 542 107 504 b 63 94 113 339 88 224 b -49 -165 43 0 10 -86 b -246 -239 -97 -232 -162 -257 b -349 -210 -282 -232 -314 -221 b -531 -261 -424 -187 -492 -207 b -508 -449 -565 -318 -561 -393 b -425 -517 -483 -475 -456 -499 b 165 -404 -232 -631 26 -581 b 288 -139 228 -324 267 -236 b 325 203 314 -26 325 89 z m 60 801 b 107 688 60 751 76 714 b 269 675 151 650 219 646 b 314 886 342 718 364 822 b 114 913 268 946 175 958 b 60 801 74 886 63 844 z "},"k":{"ha":831,"x_min":0,"x_max":0,"o":"m 374 629 b 397 781 382 689 390 736 b 446 1058 414 875 431 967 b 406 1208 456 1115 440 1165 b 217 1239 356 1268 281 1281 b 132 1119 174 1208 144 1169 b 97 942 121 1058 108 1001 b 92 107 42 664 42 386 b 122 21 100 79 108 47 b 226 -40 142 -21 179 -46 b 318 39 274 -35 306 -8 b 335 140 326 69 331 106 b 342 282 338 183 339 231 b 379 254 360 269 369 261 b 635 139 457 197 539 154 b 774 185 690 129 739 143 b 786 272 796 211 803 242 b 710 317 771 303 744 317 b 453 465 615 317 513 403 b 679 557 521 497 613 524 b 742 601 701 568 722 585 b 757 682 767 626 769 658 b 685 710 742 708 714 717 b 546 675 640 699 593 686 b 374 629 492 661 438 647 z "},"l":{"ha":378,"x_min":0,"x_max":0,"o":"m 354 792 b 378 1099 378 886 419 1001 b 297 1181 363 1143 333 1171 b 93 1022 208 1204 114 1113 b 57 825 78 956 64 890 b 83 151 28 597 32 371 b 129 22 96 108 110 63 b 251 -31 153 -28 203 -46 b 325 85 294 -17 326 31 b 319 172 324 114 321 143 b 354 792 296 378 306 585 z "},"m":{"ha":1329,"x_min":0,"x_max":0,"o":"m 319 774 b 301 896 314 817 313 857 b 131 947 281 979 190 1007 b 47 706 78 890 56 793 b 90 156 35 519 49 336 b 343 138 121 -39 303 -54 b 392 526 356 268 360 403 b 540 383 451 756 529 440 b 569 311 544 357 557 331 b 714 300 610 247 672 244 b 756 382 732 324 740 354 b 874 618 794 461 835 539 b 1001 579 925 715 993 699 b 1006 260 1011 458 1018 383 b 994 163 1001 229 997 197 b 1036 38 990 117 1004 72 b 1168 10 1074 4 1122 -8 b 1256 124 1217 31 1247 69 b 1271 576 1274 282 1283 404 b 1190 810 1265 660 1239 739 b 907 929 1121 914 1025 949 b 682 732 801 911 746 815 b 319 774 540 875 489 881 z "},"n":{"ha":1004,"x_min":0,"x_max":0,"o":"m 557 501 b 701 460 624 576 704 590 b 724 174 710 381 717 251 b 753 47 725 128 726 85 b 919 46 794 -18 878 -19 b 951 133 935 71 949 104 b 931 550 964 257 961 432 b 858 704 917 607 893 660 b 574 782 788 797 681 831 b 417 678 518 756 469 713 b 379 647 406 671 394 661 b 379 729 379 679 379 704 b 378 872 379 778 381 825 b 299 976 372 921 350 963 b 171 935 251 990 201 978 b 128 856 154 911 136 885 b 79 679 108 797 90 739 b 72 153 39 504 29 328 b 129 29 83 110 103 65 b 338 54 192 -46 293 -32 b 381 172 356 93 367 132 b 557 501 417 293 472 406 z "},"o":{"ha":874,"x_min":0,"x_max":0,"o":"m 836 582 b 789 829 832 664 825 749 b 551 1006 742 926 668 992 b 304 929 456 1018 376 989 b 61 354 119 779 11 597 b 265 49 88 228 144 119 b 635 83 386 -22 531 -12 b 743 219 679 122 715 168 b 836 582 808 331 836 450 z m 475 267 b 396 317 424 243 418 282 b 400 718 350 454 340 586 b 499 768 419 754 457 763 b 578 735 539 774 558 756 b 475 267 686 606 638 365 z "},"p":{"ha":846,"x_min":0,"x_max":0,"o":"m 324 196 b 356 192 336 194 346 193 b 383 185 365 190 374 188 b 679 294 504 157 603 194 b 804 778 789 433 833 597 b 597 1014 789 904 707 993 b 367 944 511 1033 433 1004 b 326 908 353 931 336 919 b 253 943 299 922 276 938 b 110 861 190 956 140 925 b 53 624 74 788 58 706 b 75 11 38 419 46 215 b 114 -161 83 -44 96 -106 b 238 -232 135 -219 188 -244 b 326 -117 290 -221 322 -178 b 324 -71 328 -101 324 -87 b 319 151 322 3 321 76 b 324 196 319 164 322 178 z m 340 435 b 367 686 347 521 347 608 b 513 831 385 760 442 810 b 594 767 557 844 592 818 b 588 669 596 736 593 701 b 479 463 572 590 535 521 b 340 435 440 418 396 407 z "},"q":{"ha":925,"x_min":0,"x_max":0,"o":"m 611 878 b 550 929 588 896 572 915 b 249 936 457 1006 344 1008 b 157 836 214 907 182 872 b 40 504 89 738 51 626 b 106 268 33 419 50 336 b 303 229 158 208 232 192 b 383 289 332 244 361 264 b 496 438 424 336 458 388 b 524 474 501 447 510 457 b 521 436 522 453 522 444 b 515 35 506 301 496 168 b 557 -118 522 -18 536 -69 b 671 -181 575 -162 625 -186 b 763 -89 717 -174 751 -142 b 771 -28 769 -69 769 -47 b 789 213 776 53 775 133 b 883 667 815 364 849 515 b 896 857 896 729 901 792 b 801 979 890 917 860 963 b 650 931 742 999 689 981 b 611 878 636 917 625 899 z m 253 406 b 346 725 247 528 274 633 b 442 735 379 767 400 767 b 488 700 458 724 475 711 b 253 406 425 586 317 446 z "},"r":{"ha":749,"x_min":0,"x_max":0,"o":"m 386 808 b 378 849 385 818 382 835 b 207 976 354 931 289 979 b 49 843 131 975 65 919 b 38 750 43 813 38 781 b 51 282 40 594 43 439 b 133 22 56 197 75 93 b 299 61 185 -39 275 -17 b 306 136 303 85 304 113 b 322 376 311 215 318 297 b 413 597 328 460 361 533 b 476 647 432 617 453 632 b 522 640 493 661 513 660 b 554 582 532 619 546 601 b 579 521 564 563 569 540 b 651 476 594 486 624 472 b 715 536 681 479 707 503 b 718 564 717 544 718 553 b 639 785 719 646 694 722 b 532 831 613 817 575 836 b 386 808 486 828 438 818 z "},"s":{"ha":721,"x_min":0,"x_max":0,"o":"m 206 361 b 257 185 332 261 426 247 b 125 160 215 171 171 164 b 65 82 85 149 61 124 b 142 -10 69 39 100 1 b 164 -15 150 -14 157 -15 b 571 93 311 -15 454 -7 b 535 444 672 183 660 329 b 408 536 493 478 450 506 b 557 706 299 610 471 686 b 490 1000 775 758 665 1014 b 65 750 325 975 158 888 b 119 438 6 661 35 533 b 206 361 146 410 178 383 z "},"t":{"ha":813,"x_min":0,"x_max":0,"o":"m 544 628 b 585 881 558 721 574 800 b 603 1054 593 938 600 997 b 594 1156 604 1086 603 1124 b 369 1200 563 1256 439 1282 b 297 1025 325 1151 304 1090 b 272 697 283 915 281 807 b 269 636 269 679 269 658 b 200 643 242 638 222 640 b 132 643 179 643 156 644 b 26 547 81 636 36 600 b 85 426 17 503 40 451 b 157 404 106 417 132 410 b 274 394 196 397 235 397 b 282 333 276 372 279 351 b 307 154 288 272 296 211 b 364 7 321 103 340 54 b 478 -35 388 -36 435 -50 b 536 64 515 -21 544 21 b 524 432 518 150 506 233 b 688 488 581 450 635 465 b 754 526 713 497 733 511 b 775 617 785 550 793 588 b 689 657 760 650 728 665 b 653 646 676 656 665 650 b 544 628 618 640 586 633 z "},"u":{"ha":913,"x_min":0,"x_max":0,"o":"m 576 299 b 719 -17 603 190 614 54 b 847 -10 767 -44 814 -43 b 864 110 881 21 883 61 b 836 356 825 185 825 265 b 881 699 850 469 867 583 b 879 785 888 728 883 758 b 665 785 832 915 717 894 b 342 456 575 592 354 149 b 343 701 338 536 344 617 b 244 821 338 760 300 806 b 100 769 194 838 136 819 b 63 693 83 747 69 721 b 76 286 25 557 25 419 b 143 172 89 247 114 204 b 486 171 235 57 388 57 b 546 257 508 199 525 228 b 576 299 556 271 564 281 z "},"v":{"ha":782,"x_min":0,"x_max":0,"o":"m 375 438 b 364 478 369 463 365 469 b 306 726 344 561 325 644 b 276 796 300 750 289 778 b 72 789 225 875 117 872 b 47 707 60 763 53 736 b 94 235 32 547 42 388 b 193 67 118 172 147 115 b 494 103 289 -31 425 -14 b 540 200 511 132 526 164 b 739 793 607 399 672 594 b 754 857 744 814 750 835 b 704 943 758 896 740 929 b 611 915 672 960 638 949 b 581 857 599 899 590 876 b 410 506 524 740 467 624 b 375 438 399 488 392 468 z "},"w":{"ha":1236,"x_min":0,"x_max":0,"o":"m 593 292 b 619 239 604 269 610 253 b 699 122 644 196 668 157 b 1100 182 831 -21 1010 7 b 1163 369 1128 240 1147 304 b 1207 833 1200 521 1204 678 b 1197 925 1207 865 1203 897 b 1113 996 1188 976 1153 1001 b 1047 914 1076 992 1054 963 b 1010 625 1036 818 1028 719 b 940 361 992 535 968 446 b 903 290 935 336 917 322 b 847 382 882 329 861 353 b 783 535 826 431 806 485 b 731 643 768 572 750 611 b 557 632 682 718 601 710 b 401 361 510 542 454 450 b 374 328 397 350 385 343 b 357 399 368 354 361 379 b 311 828 328 542 317 683 b 299 901 311 851 306 879 b 110 933 267 990 165 1007 b 69 843 90 910 76 874 b 115 197 22 625 33 408 b 228 43 140 138 176 85 b 489 86 318 -29 424 -17 b 563 235 518 132 539 185 b 593 292 574 251 582 269 z "},"x":{"ha":925,"x_min":0,"x_max":0,"o":"m 433 311 b 622 57 501 222 561 139 b 672 -1 640 36 656 14 b 781 -10 706 -31 747 -32 b 822 89 817 10 833 51 b 794 161 818 114 807 139 b 644 457 747 260 693 356 b 617 513 635 472 625 492 b 644 544 628 525 635 532 b 839 747 710 613 775 679 b 886 810 857 767 875 786 b 813 926 914 865 876 926 b 746 908 789 926 764 921 b 643 833 707 888 672 860 b 511 703 594 790 550 744 b 329 903 449 771 392 839 b 204 979 293 935 249 961 b 69 944 156 999 106 985 b 49 801 29 901 26 851 b 92 732 60 776 75 753 b 268 515 150 660 208 589 b 318 453 285 496 303 474 b 285 400 306 435 293 418 b 118 131 228 311 174 222 b 97 65 107 111 100 88 b 135 -1 93 36 107 10 b 211 14 163 -14 189 -8 b 240 58 222 26 229 43 b 433 311 292 150 360 228 z "},"y":{"ha":1047,"x_min":0,"x_max":0,"o":"m 810 628 b 804 597 807 611 807 604 b 658 238 768 471 721 351 b 589 138 640 203 615 169 b 494 131 553 100 538 101 b 406 192 467 151 439 178 b 240 57 315 231 224 154 b 265 -15 246 31 253 6 b 765 -79 374 -218 614 -250 b 832 15 790 -50 814 -21 b 900 158 858 60 882 108 b 999 564 949 289 982 426 b 1014 821 1010 650 1014 736 b 933 935 1014 882 981 925 b 790 886 875 947 825 933 b 357 693 678 789 336 304 b 361 829 360 738 363 783 b 276 947 360 889 322 935 b 139 900 221 963 174 946 b 100 838 124 881 111 860 b 32 496 51 729 24 618 b 78 340 33 440 49 388 b 357 233 140 243 246 203 b 575 374 444 258 514 313 b 772 590 643 443 706 519 b 810 628 783 600 790 611 z "},"z":{"ha":932,"x_min":0,"x_max":0,"o":"m 508 708 b 474 661 493 688 483 675 b 268 413 406 579 339 494 b 76 185 204 336 158 247 b 54 154 67 179 61 165 b 157 -26 11 71 64 -21 b 236 -19 183 -26 211 -25 b 578 50 350 3 464 29 b 779 58 643 58 711 64 b 899 119 839 57 881 71 b 850 236 915 164 900 210 b 733 276 813 257 774 274 b 451 292 640 286 546 289 b 382 292 433 293 413 292 b 533 454 438 354 486 403 b 796 718 622 542 708 631 b 888 893 846 765 878 824 b 790 1010 894 961 860 1008 b 751 1008 776 1013 765 1010 b 500 972 668 997 583 985 b 285 993 429 965 360 965 b 74 856 183 1035 74 964 b 179 696 72 779 113 729 b 379 679 242 665 311 671 b 508 708 418 686 458 696 z "},"{":{"ha":639,"x_min":0,"x_max":0,"o":"m 225 472 b 201 417 214 450 207 433 b 139 285 181 372 157 331 b 125 133 119 236 115 185 b 296 -50 139 32 224 -37 b 550 25 393 -65 476 -35 b 583 126 592 57 603 94 b 476 151 565 161 524 172 b 381 140 446 140 414 139 b 339 197 347 142 331 167 b 367 269 344 222 357 244 b 428 406 388 315 414 357 b 390 596 453 474 443 540 b 381 610 388 601 383 607 b 442 676 403 633 422 653 b 433 992 529 778 524 899 b 375 1050 415 1013 393 1029 b 483 1129 286 1108 428 1188 b 575 1132 517 1115 549 1108 b 603 1231 607 1157 613 1193 b 442 1357 583 1296 514 1349 b 149 1175 325 1364 192 1283 b 168 990 119 1111 126 1047 b 250 904 192 957 221 931 b 244 775 314 843 317 826 b 94 676 196 739 146 708 b 56 563 49 646 38 613 b 131 496 69 526 93 506 b 225 472 161 489 189 483 z "},"|":{"ha":386,"x_min":0,"x_max":0,"o":"m 360 888 b 349 964 357 915 354 939 b 260 1067 338 1017 311 1056 b 129 1003 207 1081 157 1057 b 76 -47 50 817 32 308 b 164 -128 85 -103 117 -131 b 246 -42 207 -128 236 -99 b 256 68 253 -7 256 32 b 347 800 263 315 290 561 b 360 888 353 831 357 860 z "},"}":{"ha":639,"x_min":0,"x_max":0,"o":"m 425 472 b 519 496 461 483 489 489 b 594 563 557 506 581 526 b 556 676 613 613 601 646 b 406 775 504 708 454 739 b 400 904 333 826 336 843 b 482 990 429 931 458 957 b 501 1175 524 1047 531 1111 b 208 1357 458 1283 325 1364 b 47 1231 136 1349 67 1296 b 75 1132 38 1193 43 1157 b 167 1129 101 1108 133 1115 b 275 1050 222 1188 364 1108 b 217 992 257 1029 235 1013 b 208 676 126 899 121 778 b 269 610 228 653 247 633 b 260 596 267 607 263 601 b 222 406 207 540 197 474 b 283 269 236 357 263 315 b 311 197 293 244 306 222 b 269 140 319 167 303 142 b 174 151 236 139 204 140 b 67 126 126 172 85 161 b 100 25 47 94 58 57 b 354 -50 174 -35 257 -65 b 525 133 426 -37 511 32 b 511 285 535 185 531 236 b 449 417 493 331 469 372 b 425 472 443 433 436 450 z "},"~":{"ha":947,"x_min":0,"x_max":0,"o":"m 719 447 b 638 467 669 382 642 390 b 629 601 635 513 638 558 b 450 753 615 693 543 751 b 242 672 369 753 303 724 b 65 363 150 589 96 483 b 82 239 57 322 57 278 b 235 217 117 179 183 169 b 286 281 253 235 268 260 b 422 435 331 332 375 383 b 454 458 429 444 443 449 b 493 351 468 419 479 385 b 692 265 536 272 615 239 b 894 490 797 306 865 383 b 897 531 897 503 899 517 b 808 568 892 576 843 596 b 776 526 796 558 785 542 b 719 447 757 501 740 474 z "},"":{"ha":971,"x_min":0,"x_max":0,"o":"m 626 482 b 686 564 650 514 667 540 b 860 781 743 636 803 707 b 921 875 882 811 906 842 b 890 1031 949 933 933 994 b 733 1022 842 1064 781 1064 b 658 935 704 996 679 968 b 504 674 606 850 556 761 b 482 636 499 663 490 654 b 388 810 449 699 417 756 b 297 953 358 858 331 908 b 204 1035 272 986 239 1013 b 68 1024 158 1065 106 1057 b 40 888 28 989 19 936 b 94 797 57 856 74 826 b 296 524 160 706 228 617 b 317 489 301 514 308 503 b 275 486 299 486 288 489 b 194 476 249 483 219 483 b 143 407 160 468 139 435 b 201 353 146 378 169 356 b 265 353 222 351 244 353 b 396 353 310 353 353 353 b 363 306 403 319 390 307 b 315 301 347 306 331 304 b 224 292 286 300 254 296 b 172 232 189 286 171 261 b 232 179 174 203 196 182 b 310 178 257 176 283 178 b 378 178 331 178 353 178 b 378 107 378 153 376 131 b 392 43 379 86 385 63 b 485 -10 410 4 444 -12 b 563 57 522 -4 551 21 b 567 114 567 76 567 94 b 574 200 569 140 571 168 b 753 193 636 199 693 204 b 789 189 763 192 775 190 b 838 224 814 186 831 199 b 813 278 846 250 832 267 b 772 292 800 286 785 290 b 604 313 717 300 661 306 b 582 317 599 314 590 315 b 588 363 583 333 586 347 b 765 375 649 367 707 369 b 825 390 785 378 806 383 b 851 442 846 401 854 419 b 815 481 850 464 835 476 b 775 482 801 483 789 482 b 626 482 728 482 682 482 z "},"":{"ha":968,"x_min":0,"x_max":0,"o":"m 314 797 b 301 815 313 801 306 808 b 269 863 290 831 282 847 b 229 919 257 882 244 903 b 149 932 206 946 175 947 b 118 857 122 917 108 890 b 143 803 122 839 131 818 b 235 686 171 764 201 726 b 236 307 171 563 167 436 b 186 275 219 296 204 283 b 94 229 158 260 125 247 b 46 114 46 203 28 158 b 161 64 63 71 111 47 b 274 125 200 81 239 100 b 364 210 307 147 335 181 b 556 235 435 185 499 206 b 660 115 592 190 624 150 b 742 69 681 96 713 78 b 868 135 794 56 853 86 b 817 260 886 182 865 232 b 775 278 803 267 788 274 b 688 351 739 296 710 317 b 738 429 703 376 722 403 b 790 636 772 493 797 563 b 818 696 788 664 800 679 b 914 804 853 729 882 767 b 936 896 933 831 942 863 b 814 935 921 957 857 978 b 776 888 799 921 788 903 b 725 808 760 860 743 835 b 469 842 643 888 558 889 b 439 831 458 838 450 832 b 314 797 400 819 361 810 z m 426 476 b 510 657 429 547 447 611 b 533 682 517 664 525 675 b 617 675 565 714 596 708 b 626 549 642 632 640 590 b 507 406 606 486 563 440 b 426 450 457 375 429 392 b 426 476 426 458 426 468 z "},"":{"ha":853,"x_min":0,"x_max":0,"o":"m 444 971 b 447 843 446 925 447 883 b 518 599 447 754 474 674 b 622 536 542 558 574 535 b 719 610 672 539 699 568 b 767 883 764 694 778 789 b 675 1121 756 969 733 1054 b 406 1192 606 1203 506 1231 b 272 1096 353 1171 310 1139 b 139 747 188 996 149 878 b 138 553 133 681 138 617 b 83 535 119 546 101 542 b 42 454 53 517 38 489 b 96 393 49 422 67 400 b 179 376 124 385 151 382 b 231 164 194 303 225 235 b 200 28 174 125 163 74 b 315 -17 229 -8 268 -26 b 414 46 354 -6 385 18 b 474 83 431 61 453 78 b 621 72 522 93 572 92 b 714 53 650 60 683 54 b 811 161 782 49 819 93 b 643 321 799 250 733 313 b 476 297 585 325 529 315 b 431 285 461 293 447 289 b 399 385 419 321 410 349 b 449 394 419 388 436 388 b 540 432 481 406 510 415 b 560 494 561 442 567 467 b 508 538 554 521 536 536 b 474 538 497 539 485 538 b 358 538 435 538 396 538 b 444 971 304 711 342 906 z "},"":{"ha":639,"x_min":0,"x_max":0,"o":"m 418 140 b 433 153 425 146 429 151 b 596 410 538 207 585 297 b 586 497 597 440 593 469 b 508 571 576 536 549 563 b 408 531 467 581 433 561 b 358 460 392 507 375 482 b 306 776 264 335 164 769 b 357 721 321 758 340 739 b 453 693 390 686 419 676 b 493 789 488 708 504 742 b 463 869 486 815 476 847 b 369 972 436 906 404 933 b 388 1032 374 986 381 1008 b 404 1069 393 1044 399 1057 b 374 1160 417 1110 406 1142 b 279 1129 342 1176 303 1164 b 256 1074 269 1113 260 1092 b 235 972 247 1040 239 1007 b 206 924 233 949 224 935 b 100 793 160 889 126 843 b 247 150 -8 594 38 275 b 253 99 249 132 251 115 b 310 -15 260 54 276 15 b 429 -22 346 -47 394 -50 b 447 89 461 3 469 44 b 418 140 442 106 429 121 z "},"":{"ha":913,"x_min":0,"x_max":0,"o":"m 624 408 b 428 457 529 267 492 308 b 538 489 469 467 504 476 b 585 508 554 492 571 499 b 597 574 604 526 608 550 b 531 604 589 597 558 610 b 404 585 490 600 450 594 b 408 639 406 608 406 624 b 529 657 451 643 493 650 b 604 682 556 663 581 669 b 632 746 628 694 638 718 b 575 786 622 771 603 785 b 543 781 565 786 554 782 b 431 781 510 776 479 772 b 494 875 457 817 471 849 b 600 883 531 924 554 924 b 694 750 644 847 672 800 b 799 700 718 707 757 688 b 850 803 833 713 858 753 b 739 1029 833 888 800 965 b 406 1049 639 1132 518 1142 b 272 871 346 1000 304 939 b 232 781 258 840 246 808 b 110 775 189 778 149 778 b 36 704 64 767 35 736 b 111 636 36 669 65 642 b 153 632 125 632 139 636 b 201 628 167 631 182 631 b 190 568 196 607 192 588 b 85 563 153 567 119 567 b 25 503 53 558 32 532 b 74 435 24 475 40 446 b 144 421 96 426 122 424 b 193 419 163 419 182 419 b 438 28 249 264 281 126 b 774 71 553 -44 682 -26 b 874 286 832 133 863 206 b 860 453 882 344 885 399 b 674 479 826 539 729 553 b 624 408 653 458 642 433 z "},"":{"ha":606,"x_min":0,"x_max":0,"o":"m 400 464 b 506 563 442 501 474 531 b 547 601 521 574 536 586 b 549 671 565 624 564 651 b 475 689 531 694 504 703 b 436 665 463 682 449 675 b 324 585 400 640 363 613 b 293 628 311 600 303 614 b 249 683 278 646 265 667 b 126 700 214 715 164 719 b 79 586 88 679 65 631 b 124 485 88 550 107 517 b 154 438 132 468 142 454 b 119 410 139 428 131 418 b 65 354 100 392 82 375 b 60 242 33 315 31 272 b 172 240 86 214 132 213 b 219 282 189 253 204 269 b 268 328 235 297 250 313 b 326 292 289 314 308 301 b 471 264 372 269 421 258 b 533 319 503 271 525 289 b 510 397 543 350 536 376 b 471 418 500 408 483 411 b 400 464 449 433 428 447 z "},"":{"ha":708,"x_min":0,"x_max":0,"o":"m 163 326 b 610 364 314 326 458 322 b 660 446 650 374 669 413 b 574 497 650 481 614 501 b 228 517 460 488 347 504 b 106 508 188 518 144 518 b 43 431 68 503 46 471 b 99 342 40 392 61 356 b 163 326 118 332 140 328 z m 372 736 b 265 633 315 738 267 692 b 374 525 264 574 315 525 b 478 632 431 526 478 576 b 372 736 478 690 431 736 z m 358 142 b 428 211 396 142 428 174 b 358 282 428 250 396 279 b 289 210 321 282 288 249 b 358 142 289 172 321 140 z "},":":{"ha":374,"x_min":0,"x_max":0,"o":"m 306 554 b 188 664 304 617 254 665 b 79 546 124 664 75 611 b 192 435 79 486 131 435 b 306 554 257 436 306 489 z m 306 208 b 188 318 304 271 254 319 b 79 200 124 318 75 265 b 192 89 79 140 131 89 b 306 208 257 90 306 143 z "},"":{"ha":743,"x_min":0,"x_max":0,"o":"m 468 540 b 485 638 474 575 481 606 b 401 775 492 701 460 754 b 257 714 346 792 288 768 b 231 625 242 686 238 656 b 221 549 226 601 225 575 b 192 547 208 549 200 547 b 104 543 163 544 133 547 b 44 469 67 536 43 506 b 108 408 47 436 69 413 b 154 408 124 406 139 408 b 232 408 181 408 208 408 b 297 265 254 358 272 310 b 419 215 329 214 376 197 b 464 339 464 235 478 276 b 451 418 458 365 454 390 b 535 433 483 425 508 428 b 586 490 569 439 590 463 b 526 540 585 519 561 539 b 468 540 508 542 492 540 z m 142 -56 b 622 -11 281 -74 479 -37 b 683 74 664 -1 692 38 b 596 138 676 113 639 136 b 276 147 490 139 383 143 b 133 140 229 147 181 149 b 44 39 75 131 42 92 b 142 -56 46 -14 82 -50 z "},"":{"ha":1119,"x_min":0,"x_max":0,"o":"m 360 1183 b 378 1185 365 1183 371 1183 b 485 1193 413 1188 449 1190 b 504 1197 490 1193 497 1194 b 553 1261 538 1206 556 1231 b 494 1313 550 1288 528 1311 b 379 1311 457 1314 417 1315 b 197 1282 318 1303 258 1292 b 110 1264 168 1276 139 1269 b 78 1224 89 1260 78 1243 b 114 1183 78 1204 92 1188 b 124 1183 117 1183 121 1183 b 219 1181 156 1182 188 1182 b 244 1181 228 1179 235 1181 b 218 794 211 1053 199 936 b 236 738 221 775 228 754 b 283 714 244 719 263 713 b 325 749 306 717 318 729 b 329 774 326 758 328 765 b 338 906 332 818 333 863 b 347 982 340 932 344 956 b 360 1183 350 1025 357 1138 z m 886 1043 b 890 1042 886 1043 889 1042 b 892 1029 890 1038 890 1033 b 892 938 892 1000 890 968 b 904 811 894 896 899 853 b 943 739 908 783 921 758 b 1028 749 974 713 1010 717 b 1040 786 1033 760 1038 772 b 1040 846 1042 806 1042 826 b 1038 1136 1028 943 1032 1040 b 1031 1251 1039 1174 1042 1213 b 978 1306 1024 1282 1003 1301 b 918 1269 949 1308 932 1299 b 886 1211 908 1249 897 1229 b 764 992 840 1142 796 1071 b 758 983 763 990 761 988 b 744 1018 753 996 749 1008 b 681 1200 722 1079 701 1139 b 661 1236 675 1213 669 1226 b 575 1228 635 1269 588 1264 b 569 1193 571 1215 571 1204 b 563 1024 567 1136 565 1079 b 553 808 558 951 556 881 b 557 771 551 796 553 783 b 593 742 563 754 575 744 b 631 760 610 739 624 744 b 640 790 635 769 640 781 b 651 892 646 825 649 858 b 657 971 653 917 654 940 b 672 949 663 961 668 954 b 714 896 686 932 699 911 b 818 913 751 864 799 872 b 843 961 826 928 835 944 b 886 1043 857 989 872 1017 z "},"":{"ha":310,"x_min":0,"x_max":0,"o":"m 235 1172 b 226 1246 232 1201 232 1225 b 157 1296 215 1282 189 1299 b 100 1239 129 1293 103 1274 b 83 1050 93 1176 89 1113 b 115 1000 82 1026 94 1008 b 178 1008 138 989 160 989 b 210 1060 192 1022 206 1040 b 235 1172 222 1099 229 1139 z "},"":{"ha":310,"x_min":0,"x_max":0,"o":"m 235 1172 b 226 1246 232 1201 232 1225 b 157 1296 215 1282 189 1299 b 100 1239 129 1293 103 1274 b 83 1050 93 1176 89 1113 b 115 1000 82 1026 94 1008 b 178 1008 138 989 160 989 b 210 1060 192 1022 206 1040 b 235 1172 222 1099 229 1139 z "},"":{"ha":472,"x_min":0,"x_max":0,"o":"m 235 1172 b 226 1246 232 1201 232 1225 b 157 1296 215 1282 189 1299 b 100 1239 129 1293 103 1274 b 83 1050 93 1176 89 1113 b 115 1000 82 1026 94 1008 b 178 1008 138 989 160 989 b 210 1060 192 1022 206 1040 b 235 1172 222 1099 229 1139 z m 406 1172 b 397 1246 403 1201 403 1225 b 328 1296 386 1282 360 1299 b 271 1239 300 1293 274 1274 b 254 1050 264 1176 260 1113 b 286 1000 253 1026 265 1008 b 349 1008 308 989 331 989 b 381 1060 363 1022 376 1040 b 406 1172 393 1099 400 1139 z "},"":{"ha":472,"x_min":0,"x_max":0,"o":"m 235 1172 b 226 1246 232 1201 232 1225 b 157 1296 215 1282 189 1299 b 100 1239 129 1293 103 1274 b 83 1050 93 1176 89 1113 b 115 1000 82 1026 94 1008 b 178 1008 138 989 160 989 b 210 1060 192 1022 206 1040 b 235 1172 222 1099 229 1139 z m 406 1172 b 397 1246 403 1201 403 1225 b 328 1296 386 1282 360 1299 b 271 1239 300 1293 274 1274 b 254 1050 264 1176 260 1113 b 286 1000 253 1026 265 1008 b 349 1008 308 989 331 989 b 381 1060 363 1022 376 1040 b 406 1172 393 1099 400 1139 z "},"#":{"ha":1186,"x_min":0,"x_max":0,"o":"m 276 697 b 206 693 249 694 228 694 b 103 685 171 690 138 690 b 53 633 74 682 54 660 b 94 576 51 610 68 583 b 178 565 121 569 150 568 b 246 565 200 564 221 565 b 222 469 239 531 229 500 b 160 465 200 468 179 467 b 101 453 142 460 119 457 b 51 378 64 440 44 413 b 125 336 57 350 86 333 b 192 342 144 339 167 340 b 181 268 188 314 182 292 b 176 126 178 222 171 175 b 249 50 179 85 208 61 b 342 85 286 42 319 54 b 378 151 357 104 369 128 b 436 304 399 203 419 253 b 519 364 450 350 478 364 b 560 364 532 364 544 364 b 542 275 554 331 546 303 b 528 90 535 214 525 151 b 607 -4 528 40 563 6 b 714 49 647 -12 689 6 b 751 131 731 74 743 103 b 835 361 782 207 808 283 b 894 407 844 392 861 403 b 1011 418 933 408 972 414 b 1113 435 1043 422 1078 428 b 1147 492 1139 444 1151 467 b 1099 531 1140 517 1125 529 b 1063 529 1088 531 1075 531 b 899 519 1011 528 958 524 b 938 608 914 554 925 583 b 1081 608 990 608 1036 610 b 1135 642 1107 608 1126 617 b 1107 700 1143 665 1132 688 b 1063 717 1093 708 1078 711 b 1001 725 1042 721 1021 722 b 1038 904 1014 786 1029 844 b 926 1060 1049 982 1001 1047 b 790 1003 871 1071 826 1046 b 703 843 750 958 722 901 b 675 749 693 813 685 781 b 631 729 669 722 654 718 b 646 806 635 756 643 781 b 550 974 651 876 613 946 b 369 922 492 999 415 981 b 322 838 351 899 335 868 b 276 697 306 794 293 747 z m 622 585 b 596 497 614 557 607 529 b 525 493 575 496 554 496 b 568 576 542 526 554 551 b 622 585 579 594 581 593 z "},"!":{"ha":390,"x_min":0,"x_max":0,"o":"m 88 1181 b 68 515 60 942 51 726 b 88 439 69 489 76 464 b 193 386 107 404 144 385 b 289 446 239 390 272 411 b 303 503 297 464 300 483 b 340 776 315 594 326 685 b 401 1119 360 890 383 1004 b 408 1213 408 1150 411 1182 b 281 1326 399 1272 349 1314 b 119 1264 222 1336 151 1311 b 88 1181 101 1240 90 1211 z m 178 268 b 40 128 101 268 39 203 b 179 -8 42 53 106 -8 b 318 131 256 -10 318 53 b 178 268 318 208 256 269 z "},"\"":{"ha":472,"x_min":0,"x_max":0,"o":"m 235 1172 b 226 1246 232 1201 232 1225 b 157 1296 215 1282 189 1299 b 100 1239 129 1293 103 1274 b 83 1050 93 1176 89 1113 b 115 1000 82 1026 94 1008 b 178 1008 138 989 160 989 b 210 1060 192 1022 206 1040 b 235 1172 222 1099 229 1139 z m 406 1172 b 397 1246 403 1201 403 1225 b 328 1296 386 1282 360 1299 b 271 1239 300 1293 274 1274 b 254 1050 264 1176 260 1113 b 286 1000 253 1026 265 1008 b 349 1008 308 989 331 989 b 381 1060 363 1022 376 1040 b 406 1172 393 1099 400 1139 z "}}}
